<svg xmlns="http://www.w3.org/2000/svg" viewBox="0 0 400 900" fill="none">
  <defs>
    <linearGradient id="silhouetteFrontGradient" x1="0" y1="0" x2="0" y2="1">
      <stop offset="0%" stop-color="#e0f2f1" />
      <stop offset="65%" stop-color="#c8e6e0" />
      <stop offset="100%" stop-color="#b2dfdb" />
    </linearGradient>
  </defs>
  <rect width="400" height="900" fill="none" />
  <g fill="url(#silhouetteFrontGradient)">
    <circle cx="200" cy="85" r="70" />
    <rect x="170" y="140" width="60" height="70" rx="25" ry="25" />
    <rect x="120" y="190" width="160" height="190" rx="80" ry="90" />
    <rect x="130" y="360" width="140" height="170" rx="70" ry="70" />
    <rect x="150" y="520" width="100" height="140" rx="50" ry="50" />
    <rect x="60" y="220" width="55" height="220" rx="28" ry="28" />
    <rect x="285" y="220" width="55" height="220" rx="28" ry="28" />
    <rect x="40" y="420" width="60" height="200" rx="28" ry="28" />
    <rect x="300" y="420" width="60" height="200" rx="28" ry="28" />
    <rect x="110" y="540" width="70" height="220" rx="35" ry="35" />
    <rect x="220" y="540" width="70" height="220" rx="35" ry="35" />
    <rect x="110" y="720" width="70" height="160" rx="32" ry="32" />
    <rect x="220" y="720" width="70" height="160" rx="32" ry="32" />
  </g>
  <g fill="#ffffff" fill-opacity="0.16">
    <path d="M170 240 C160 280 160 320 170 360 L230 360 C240 320 240 280 230 240 Z" />
    <path d="M150 520 C150 620 150 680 170 740 L230 740 C250 680 250 620 250 520 Z" />
  </g>
</svg>
